DataType=double
version=3
OpenSimVersion=4.5.2-2025-05-03-6a4c6ec41
endheader
time	q	/jointset/head_joint/q/speed
2.16	-0.3146499791163644	-1.034656195858452
2.168220902167594	-0.3249370208094166	-1.027902845647761
2.177550471284907	-0.3351473854407904	-1.019642074994585
2.18	-0.3452819802951959	-1.009188577638201
2.189055395442821	-0.3553443988070094	-0.9958849747549051
2.198762001778323	-0.36533789972542	-0.9850466852430655
2.205785427837911	-0.3752421743995574	-0.9838598293052359
2.215288011129734	-0.3850469191060357	-0.9813521840576962
2.22	-0.3947545465034035	-0.9754882524287712
2.227993536248482	-0.4043784567501787	-0.9590089940648335
2.237781362670029	-0.4139319438527335	-0.9471044573435587
2.244108761528528	-0.4233765707476015	-0.9406669243668059
2.253830430308644	-0.4327158495040512	-0.9293483760424327
2.26	-0.4419750399733103	-0.9108930933205378
2.267305925775981	-0.4511419050059187	-0.912293009621205
2.277208350605424	-0.4601612523507109	-0.9098842936876312
2.283387742470246	-0.4690859072916158	-0.8848537219689673
2.293383586013585	-0.4779502010028758	-0.8739252030245234
2.3	-0.4866670264213511	-0.8685588781172884
2.307130166433927	-0.495276726304206	-0.8513716646429342
2.317183643500323	-0.5037810864442447	-0.8503484186201224
2.323860546713602	-0.5121312890905143	-0.832737299734449
2.334198502654833	-0.5204358280037396	-0.8120507285178552
2.34	-0.528569275760836	-0.8166929851212432
2.347618611281734	-0.5365690480978713	-0.7888831847494068
2.357864243130748	-0.5444839556433405	-0.7847736841826131
2.365824732877415	-0.5522449007405408	-0.7616505647066878
2.376591465140095	-0.5599034506352654	-0.7694638735843351
2.38	-0.5673693258939129	-0.7353570076000308
2.388944015078833	-0.5748061136906115	-0.7332346945681473
2.399428732173006	-0.5820040024197672	-0.7148390612376699
2.40966552939827	-0.5891289921626577	-0.7069345925056492
2.42	-0.5961264441461802	-0.6788798960061887
2.420975943305261	-0.6028933203804521	-0.6858692747727905
2.432444948999435	-0.6096469339857719	-0.6552768194836679
2.442099194734473	-0.6161153546193635	-0.6524514528764455
2.452974082504642	-0.6225491397680059	-0.636167470203287
2.46	-0.6288429126066378	-0.6097014914434901
2.467916459223551	-0.6348084939755324	-0.6041178260881227
2.48	-0.6408731876493867	-0.5915139383394222
2.486175206421267	-0.6466431096941684	-0.5668928575332197
2.497451486678408	-0.6521915451218946	-0.5454615337529888
2.505274713314404	-0.6576882642283176	-0.5531238864450607
2.518226535806368	-0.663137672872668	-0.5229616750842785
2.520346499711314	-0.6682084893295884	-0.4960303800214093
2.531973656586898	-0.6730954806583879	-0.4820538844365455
2.543736649641458	-0.6779270590518311	-0.4843912797429603
2.555654112445555	-0.6827787861572454	-0.4788764880202898
2.56	-0.6873127193715676	-0.4350044695304626
2.573165229608812	-0.6915748946732653	-0.4202986049534753
2.58	-0.6956375117918792	-0.3804882223360469
2.592419596643609	-0.6992768556661135	-0.3596411174327335
2.602985644667077	-0.7030885127679263	-0.3975578240434788
2.617820919493188	-0.7070050057396554	-0.3736955100290434
2.62	-0.7106293894599518	-0.3547740150649474
2.634890218012359	-0.7141453740058974	-0.3497609364536038
2.644137789400434	-0.7175074135792499	-0.3116512516975255
2.65769607919542	-0.720468944289428	-0.2854148819203298
2.669491248906668	-0.7232751299210147	-0.2775904481655178
2.68	-0.7260429098197821	-0.2766303904086095
2.688083478490538	-0.728590192550822	-0.2313334820844344
2.700050995573697	-0.7307828084549907	-0.2109771860095432
2.714922773513041	-0.732857031276378	-0.2052763262439854
2.728741869626827	-0.7349060115021507	-0.2050513690145701
2.74	-0.7367835968992649	-0.1637357801862157
2.751378291962492	-0.7381766733619819	-0.105741630936625
2.762038215313458	-0.7390175530789113	-0.06884072838826398
2.778876356664125	-0.7396334199060284	-0.05670872427474975
2.79618644111576	-0.7401814613311921	-0.05378957711698763
2.803919838328381	-0.7407204481804569	-0.05434928584868199
2.82	-0.7411671175436277	-0.02155351605148289
2.836143331561629	-0.7412168830443656	0.006612425785415051
2.853692730282987	-0.7410971276076805	0.01548708896530019
2.875303500038514	-0.7409303159866033	0.01718066316784384
2.88	-0.7406613595443196	0.05019653232679433
2.9	-0.7399889226577252	0.07918743197547304
2.923395478079354	-0.7391413023106571	0.08844309426198929
2.94	-0.7382055415620387	0.1123087920764649
2.96	-0.736887989333266	0.1316368048545051
2.982943308785236	-0.7357328584083256	0.1034902496517125
3.02	-0.7346644879806864	0.1255288369079952
3.04	-0.7332630817594741	0.1503262588554184
3.061785435515877	-0.7317102442294916	0.1636388043420108
3.08	-0.7297875860575719	0.2133342801976535
3.12	-0.7275503678061259	0.2309096207509568
3.14	-0.7250606547734181	0.2551216974878273
3.163856668438415	-0.722573300824462	0.2438265464703752
3.196080161671702	-0.7200038771364776	0.2795476166055115
3.206652170173028	-0.7170730589235743	0.3025502056058497
3.223834300797107	-0.713866454848337	0.3304736680757123
3.248621708037602	-0.710626540999878	0.3190127367074942
3.271258130373218	-0.7072276711356862	0.3613841858383866
